<svg width="14" height="13" viewBox="0 0 14 13" fill="none" xmlns="http://www.w3.org/2000/svg">
<path fill-rule="evenodd" clip-rule="evenodd" d="M6.9 12.582C10.4346 12.582 13.3 9.89574 13.3 6.58203C13.3 5.02971 12.6712 3.61508 11.6394 2.54979L11.6535 2.53561C11.8488 2.34035 11.8488 2.02377 11.6535 1.82851C11.4583 1.63324 11.1417 1.63324 10.9464 1.82851L10.8868 1.88812C9.79317 1.07063 8.40745 0.582031 6.9 0.582031C3.36538 0.582031 0.5 3.26832 0.5 6.58203C0.5 8.13435 1.12881 9.54899 2.16065 10.6143L2.14643 10.6285C1.95116 10.8238 1.95116 11.1404 2.14643 11.3356C2.34169 11.5309 2.65827 11.5309 2.85353 11.3356L2.9132 11.2759C4.00683 12.0934 5.39255 12.582 6.9 12.582ZM2.9132 11.2759L11.6394 2.54979C11.4079 2.31086 11.1562 2.08951 10.8868 1.88812L2.16065 10.6143C2.39207 10.8532 2.64377 11.0746 2.9132 11.2759Z" fill="#E7AC3E"/>
</svg>
