<svg width="153" height="48" viewBox="0 0 153 48" fill="none" xmlns="http://www.w3.org/2000/svg">
<path d="M146.558 47.9994H5.63684C2.53661 47.9994 0 45.2994 0 41.9995V5.99995C0 2.69996 2.53656 0 5.63684 0H146.558C149.658 0 152.195 2.69996 152.195 5.99995V41.9994C152.195 45.2994 149.658 47.9994 146.558 47.9994" fill="#292D32"/>
<path d="M146.558 0H5.63684C2.53661 0 0 2.69996 0 5.99995V41.9994C0 45.2994 2.53656 47.9994 5.63684 47.9994H146.558C149.658 47.9994 152.195 45.2994 152.195 41.9995V5.99995C152.195 2.69996 149.658 0 146.558 0H146.558ZM146.558 0.959958C149.169 0.959958 151.293 3.22125 151.293 5.99995V41.9994C151.293 44.7787 149.169 47.0399 146.558 47.0399H5.63684C3.02634 47.0399 0.901903 44.7786 0.901903 41.9995V5.99995C0.901903 3.22125 3.02629 0.960012 5.63684 0.960012H146.558" fill="#A6A6A6"/>
<path d="M53.4595 12.2924C53.4595 13.2977 53.1798 14.0983 52.6196 14.6955C51.9833 15.4057 51.154 15.761 50.1345 15.761C49.1582 15.761 48.3281 15.4011 47.6455 14.6801C46.9616 13.9596 46.6204 13.0662 46.6204 12.0003C46.6204 10.9339 46.9616 10.041 47.6455 9.31994C48.3281 8.59954 49.1582 8.23901 50.1345 8.23901C50.6189 8.23901 51.0827 8.33986 51.5231 8.54097C51.9634 8.74256 52.3166 9.01016 52.5809 9.34528L51.9863 9.97853C51.5385 9.40903 50.922 9.12449 50.1345 9.12449C49.4225 9.12449 48.8068 9.3908 48.2872 9.92374C47.7675 10.4572 47.5077 11.149 47.5077 12.0003C47.5077 12.8516 47.7675 13.5433 48.2872 14.0768C48.8068 14.6098 49.4224 14.876 50.1345 14.876C50.8898 14.876 51.5196 14.6083 52.0238 14.0722C52.351 13.7229 52.5403 13.2373 52.5909 12.6138H50.1344V11.749H53.4123C53.444 11.9371 53.4594 12.1175 53.4594 12.2924" fill="white"/>
<path d="M53.4596 12.2927H53.3468C53.3459 13.2752 53.0763 14.0382 52.5399 14.6111L52.5388 14.612L52.5383 14.613C51.9222 15.2987 51.1302 15.64 50.1346 15.6414C49.1843 15.64 48.389 15.295 47.7248 14.5956C47.0621 13.8948 46.7345 13.0393 46.7332 12.0006C46.7345 10.9615 47.0621 10.1064 47.7248 9.40616C48.389 8.70631 49.1843 8.36083 50.1346 8.35938C50.6045 8.35938 51.0519 8.45699 51.4786 8.65146C51.9058 8.84744 52.2432 9.10426 52.4946 9.42309L52.5809 9.34565L52.5013 9.26082L51.9067 9.8945L51.9864 9.9789L52.0732 9.9021C51.6045 9.30439 50.9467 9.00309 50.1346 9.00487C49.3962 9.0039 48.7466 9.28476 48.2093 9.83793C47.6668 10.3929 47.3942 11.1236 47.3951 12.0006C47.3942 12.8777 47.6668 13.6084 48.2093 14.1634C48.7466 14.7166 49.3962 14.9974 50.1346 14.9964C50.9149 14.9979 51.58 14.7161 52.1035 14.1574C52.4532 13.7842 52.6514 13.2672 52.7034 12.6245L52.7139 12.4942H50.2473V11.8694H53.4124V11.7494L53.3014 11.7705C53.3322 11.9524 53.3468 12.1253 53.3468 12.2927H53.5723C53.5723 12.1103 53.5564 11.9229 53.5233 11.7279L53.5066 11.6294H50.0219V12.7342H52.591V12.6142L52.4788 12.6039C52.429 13.2077 52.2484 13.6624 51.9441 13.9877C51.4598 14.5014 50.8652 14.755 50.1346 14.7564C49.449 14.7554 48.8673 14.5042 48.3657 13.9909C47.8689 13.4795 47.6218 12.8266 47.6206 12.0006C47.6218 11.1747 47.8689 10.5218 48.3657 10.0103C48.8673 9.49709 49.4489 9.24583 50.1346 9.24486C50.897 9.2468 51.4726 9.51488 51.9002 10.0563L51.9795 10.1566L52.6607 9.43054L52.7338 9.35277L52.6673 9.26875C52.3903 8.91728 52.0212 8.6383 51.5676 8.43121C51.1132 8.22347 50.6336 8.11939 50.1346 8.11939C49.1324 8.11847 48.2675 8.49345 47.5659 9.23553C46.8618 9.97615 46.5069 10.9071 46.5078 12.0006C46.5069 13.0937 46.8618 14.0252 47.5664 14.7662C48.2675 15.5078 49.1324 15.8824 50.1346 15.8814C51.1784 15.8824 52.0442 15.5134 52.7012 14.7789L52.6197 14.6959L52.6994 14.7808C53.2834 14.1597 53.5731 13.3206 53.5723 12.2927H53.4596H53.4596ZM58.6559 9.2852H55.5755V11.5681H58.3535V12.4332H55.5755V14.7161H58.6559V15.6006H54.7071V8.40069H58.6559V9.2852Z" fill="white"/>
<path d="M58.6568 9.28795V9.16796H55.4636V11.6908H58.2416V12.3156L55.4636 12.316V14.8388H58.544V15.4833H54.8207V8.52344H58.544V9.28795H58.6568V9.16796V9.28795H58.7695V8.28345H54.5952V15.7233H58.7695V14.5988H55.6891V12.556H58.467V11.4508H55.6891V9.40795H58.7695V9.28795H58.6568ZM62.322 15.6034H61.4523V9.2879H59.563V8.40339H64.2113V9.2879H62.322V15.6033" fill="white"/>
<path d="M62.3224 15.6034V15.4833H61.5654V9.16796H59.6762V8.52349H64.0989V9.16796H62.2097V15.6033H62.3224V15.4833V15.6033H62.4352V9.40795H64.3244V8.28345H59.4507V9.40789H61.3399V15.7233H62.4352V15.6033H62.3224V15.6034ZM67.5748 15.6034V8.40339H68.4437V15.6033H67.5748" fill="white"/>
<path d="M67.5705 15.6034H67.6832V8.52344H68.3266V15.4833H67.5705V15.6033H67.6832H67.5705V15.7233H68.5521V8.28345H67.4578V15.7233H67.5705V15.6033V15.6034ZM72.2948 15.6034H71.4251V9.2879H69.5359V8.40339H74.1841V9.2879H72.2948V15.6033" fill="white"/>
<path d="M72.2974 15.6003V15.4802H71.5404V9.16483H69.6513V8.52037H74.0739V9.16483H72.1847V15.6002H72.2974V15.4802V15.6002H72.4102V9.40482H74.2994V8.28032H69.4258V9.40477H71.3149V15.7202H72.4102V15.6002H72.2974V15.6003ZM78.6679 14.067C79.1686 14.6065 79.7812 14.876 80.5057 14.876C81.2301 14.876 81.843 14.6065 82.3429 14.067C82.844 13.5275 83.0951 12.8379 83.0951 12.0003C83.0951 11.1627 82.844 10.4731 82.3429 9.93355C81.843 9.39404 81.2301 9.12449 80.5057 9.12449C79.7812 9.12449 79.1686 9.39404 78.6679 9.93355C78.1681 10.4731 77.9171 11.1627 77.9171 12.0003C77.9171 12.8379 78.1681 13.5275 78.6679 14.067ZM82.9858 14.6698C82.3208 15.3977 81.4938 15.761 80.5057 15.761C79.5165 15.761 78.6899 15.3977 78.0263 14.6698C77.3609 13.9427 77.0297 13.0527 77.0297 12.0003C77.0297 10.9479 77.3609 10.0577 78.0263 9.33078C78.6899 8.60272 79.5165 8.23901 80.5057 8.23901C81.4886 8.23901 82.3134 8.60466 82.9815 9.33547C83.6486 10.0662 83.9824 10.9545 83.9824 12.0003C83.9824 13.0527 83.6494 13.9427 82.9858 14.6698Z" fill="white"/>
<path d="M78.6691 14.0674L78.589 14.1518C79.1082 14.7128 79.756 14.9979 80.5068 14.9964C81.2572 14.9979 81.9059 14.7128 82.4243 14.1518C82.9469 13.5901 83.2098 12.8636 83.209 12.0006C83.2098 11.1378 82.9469 10.4112 82.4243 9.84952C81.9059 9.28843 81.2572 9.00347 80.5068 9.00487C79.756 9.00347 79.1082 9.28843 78.589 9.84952C78.0676 10.4112 77.8042 11.1378 77.8056 12.0006C77.8042 12.8635 78.0676 13.5901 78.589 14.1518L78.6691 14.0674L78.7493 13.983C78.2711 13.465 78.0319 12.8134 78.031 12.0006C78.0319 11.1879 78.2711 10.5363 78.7493 10.0183C79.2319 9.50038 79.8083 9.24631 80.5068 9.24491C81.2048 9.24631 81.7826 9.50038 82.264 10.0183C82.7431 10.5363 82.9822 11.1879 82.9831 12.0006C82.9822 12.8134 82.7431 13.465 82.264 13.983C81.7826 14.5009 81.2048 14.755 80.5068 14.7564C79.8083 14.755 79.2319 14.5009 78.7493 13.983L78.6691 14.0674ZM82.987 14.6701L82.9064 14.5868C82.26 15.2917 81.4695 15.64 80.5068 15.6414C79.5437 15.64 78.7532 15.2917 78.108 14.5868L78.105 14.583L78.108 14.5868C77.4629 13.8793 77.1446 13.0263 77.1437 12.0006C77.1446 10.975 77.4629 10.1219 78.108 9.41458C78.7532 8.70955 79.5437 8.36083 80.5068 8.35943C81.4633 8.36083 82.252 8.711 82.902 9.4197C83.5494 10.1303 83.8695 10.9821 83.8709 12.0006C83.8695 13.0263 83.5503 13.8793 82.9064 14.5868L82.987 14.6701L83.0681 14.7535C83.7515 14.0064 84.0972 13.0797 84.0964 12.0006C84.0972 10.9277 83.7502 10.0029 83.0636 9.25246C82.3767 8.49906 81.5162 8.11809 80.5068 8.11939C79.4922 8.11809 78.6291 8.49728 77.9465 9.24777V9.24723C77.2617 9.99486 76.9173 10.9216 76.9182 12.0006C76.9173 13.0797 77.2617 14.0064 77.9465 14.754L77.9495 14.7574L77.9465 14.7535C78.6291 15.504 79.4922 15.8824 80.5068 15.8814C81.521 15.8824 82.3841 15.504 83.0681 14.7535L82.987 14.6701ZM85.2034 15.6006V8.40063H86.2613L89.5487 14.0017H89.5861L89.5487 12.6141V8.40063H90.4184V15.6005H89.5112L86.0719 9.72807H86.0344L86.0719 11.1161V15.6005H85.2035" fill="white"/>
<path d="M85.2018 15.6034H85.3146V8.52344H86.1971L89.4845 14.1245H89.7003L89.6598 12.6152V8.52349H90.3041V15.4833H89.5722L86.1328 9.61089H85.9171L85.9575 11.1208V15.4833H85.2019V15.6033H85.3146H85.2019V15.7233H86.183V11.117L86.1456 9.72764L86.0328 9.73088V9.85087H86.0703V9.73088L85.9747 9.79468L89.4471 15.7233H90.5295V8.28345H89.4343V12.6184L89.4717 14.0077L89.5845 14.0045V13.8845H89.5471V14.0045L89.6427 13.9408L86.3221 8.28345H85.0892V15.7233H85.2019V15.6033L85.2018 15.6034ZM120.557 36.0031H122.66V21.0019H120.557L120.557 36.0031ZM139.504 26.4057L137.093 32.9094H137.021L134.518 26.4056H132.252L136.005 35.4959L133.865 40.5523H136.06L141.844 26.4056L139.504 26.4057ZM127.575 34.2993C126.885 34.2993 125.924 33.9327 125.924 33.0252C125.924 31.8673 127.121 31.4235 128.154 31.4235C129.08 31.4235 129.514 31.6358 130.076 31.9256C129.913 33.3149 128.789 34.2993 127.575 34.2993ZM127.828 26.0774C126.305 26.0774 124.728 26.7918 124.075 28.3743L125.942 29.204C126.341 28.3743 127.084 28.1038 127.864 28.1038C128.952 28.1038 130.058 28.799 130.076 30.0341V30.1884C129.695 29.9568 128.88 29.6094 127.882 29.6094C125.87 29.6094 123.82 30.7864 123.82 32.9867C123.82 34.9939 125.471 36.2871 127.32 36.2871C128.735 36.2871 129.514 35.6117 130.004 34.8205H130.076V35.9783H132.107V30.2267C132.107 27.5639 130.24 26.0774 127.828 26.0774ZM114.827 28.2317H111.835V23.0897H114.827C116.4 23.0897 117.293 24.4757 117.293 25.6607C117.293 26.8232 116.4 28.2317 114.827 28.2317ZM114.773 21.0019H109.733V36.0031H111.835V30.3196H114.773C117.105 30.3196 119.397 28.5229 119.397 25.6607C119.397 22.7986 117.105 21.0019 114.773 21.0019ZM87.287 34.302C85.8337 34.302 84.617 33.0069 84.617 31.228C84.617 29.4305 85.8337 28.1156 87.287 28.1156C88.7218 28.1156 89.8478 29.4304 89.8478 31.228C89.8478 33.0069 88.7218 34.302 87.2871 34.302H87.287ZM89.7025 27.2456H89.6298C89.1578 26.6465 88.2492 26.1052 87.1052 26.1052C84.7077 26.1052 82.5103 28.3476 82.5103 31.228C82.5103 34.0893 84.7077 36.3125 87.1052 36.3125C88.2492 36.3125 89.1578 35.771 89.6298 35.1528H89.7025V35.8873C89.7025 37.8402 88.7218 38.884 87.1417 38.884C85.8522 38.884 85.053 37.8978 84.7257 37.0666L82.8917 37.8786C83.4184 39.2318 84.8169 40.8945 87.1417 40.8945C89.6118 40.8945 91.7005 39.3476 91.7005 35.578V26.4145H89.7025V27.2456ZM93.1533 36.0031H95.2601V21.0013H93.1533V36.0031ZM98.366 31.0541C98.3114 29.0821 99.8008 28.0771 100.872 28.0771C101.708 28.0771 102.416 28.5215 102.652 29.16L98.366 31.0541ZM104.904 29.353C104.505 28.2121 103.288 26.1052 100.8 26.1052C98.3295 26.1052 96.2773 28.1737 96.2773 31.2088C96.2773 34.0701 98.3114 36.3125 101.036 36.3125C103.234 36.3125 104.505 34.8818 105.032 34.0507L103.397 32.8906C102.853 33.7414 102.107 34.302 101.036 34.302C99.9642 34.302 99.2015 33.7799 98.7108 32.7556L105.122 29.9329L104.904 29.353ZM53.8254 27.6711V29.8363H58.6928C58.5475 31.0541 58.1661 31.9433 57.5848 32.562C56.8767 33.3162 55.7688 34.1474 53.8254 34.1474C50.8285 34.1474 48.4858 31.5762 48.4858 28.3864C48.4858 25.1967 50.8285 22.6252 53.8254 22.6252C55.442 22.6252 56.6222 23.302 57.4941 24.1719L58.9289 22.6448C57.7121 21.4073 56.0955 20.4601 53.8254 20.4601C49.7206 20.4601 46.2698 24.0173 46.2698 28.3864C46.2698 32.7556 49.7206 36.3125 53.8254 36.3125C56.0414 36.3125 57.7121 35.5396 59.0196 34.0893C60.3637 32.6586 60.7816 30.6482 60.7816 29.0245C60.7816 28.5215 60.7454 28.0579 60.6724 27.6711H53.8254ZM66.3154 34.302C64.8621 34.302 63.6088 33.026 63.6088 31.2088C63.6088 29.3722 64.8621 28.1156 66.3154 28.1156C67.7681 28.1156 69.0214 29.3722 69.0214 31.2088C69.0214 33.0261 67.7681 34.302 66.3154 34.302ZM66.3154 26.1052C63.6634 26.1052 61.502 28.2509 61.502 31.2088C61.502 34.1474 63.6634 36.3125 66.3154 36.3125C68.9669 36.3125 71.1282 34.1474 71.1282 31.2088C71.1282 28.2509 68.9669 26.1052 66.3154 26.1052ZM76.8148 34.302C75.3621 34.302 74.1086 33.026 74.1086 31.2088C74.1086 29.3722 75.3621 28.1156 76.8148 28.1156C78.2676 28.1156 79.5209 29.3722 79.5209 31.2088C79.5209 33.0261 78.2676 34.302 76.8148 34.302H76.8148ZM76.8148 26.1052C74.1629 26.1052 72.002 28.2509 72.002 31.2088C72.002 34.1474 74.1629 36.3125 76.8148 36.3125C79.4664 36.3125 81.6278 34.1474 81.6278 31.2088C81.6278 28.2509 79.4664 26.1052 76.8148 26.1052H76.8148Z" fill="white"/>
<path d="M11.8461 9.13417C11.4678 9.49749 11.2419 10.1035 11.2419 10.9079V10.7261V37.2711V37.0962C11.2419 37.8391 11.4357 38.4128 11.7637 38.7823L11.8474 38.8676V38.868C12.1129 39.123 12.4534 39.2584 12.8436 39.258C13.2249 39.258 13.6539 39.1286 14.1066 38.8554L30.4706 28.9588L36.0915 25.559C36.8053 25.1273 37.2061 24.5704 37.2731 24.0032V24.0009C37.2061 23.4324 36.8053 22.8759 36.0915 22.4442L30.4701 19.0448L14.1066 9.14819C13.653 8.87449 13.2237 8.74463 12.8414 8.74463C12.4516 8.74463 12.1116 8.87962 11.8462 9.13417H11.8461Z" fill="#00C1FF"/>
<path d="M11.8475 38.8678L11.7637 38.7825C11.4357 38.4131 11.2419 37.8393 11.2419 37.0964V37.2712V10.7328V10.9081C11.2419 10.1037 11.4678 9.49768 11.8461 9.13435L25.814 24.0016L11.8475 38.8678Z" fill="url(#paint0_linear_439_3553)"/>
<path d="M30.4718 28.9612L25.8152 24.0038L30.4714 19.0472L36.0927 22.4466C36.8066 22.8783 37.2073 23.4347 37.2743 24.0033V24.0056C37.2073 24.5728 36.8066 25.1298 36.0927 25.5614L30.4718 28.9611" fill="url(#paint1_linear_439_3553)"/>
<path d="M12.8457 39.2573C12.4555 39.2577 12.1151 39.1222 11.8496 38.8672V38.8669L25.8161 24.0006L30.4727 28.958L14.1087 38.8547C13.656 39.1279 13.227 39.2573 12.8457 39.2573Z" fill="url(#paint2_linear_439_3553)"/>
<path d="M25.8175 24.0027L11.8496 9.13548C12.1151 8.88093 12.4551 8.74594 12.8448 8.74594C13.2271 8.74594 13.6565 8.87575 14.1101 9.1495L30.4737 19.0461L25.8175 24.0027" fill="url(#paint3_linear_439_3553)"/>
<path d="M12.8464 39.4349C12.4562 39.4349 12.1153 39.2995 11.8498 39.0445L11.8493 39.0449C11.8482 39.0437 11.8471 39.0427 11.8458 39.0417L11.7732 38.9662C11.7709 38.9638 11.7688 38.9611 11.7661 38.9583L11.8498 38.8692C12.1154 39.1241 12.4558 39.2596 12.846 39.2591C13.2273 39.2591 13.6562 39.1298 14.109 38.8565L30.4729 28.9599L30.5778 29.0715L30.4716 29.1357L14.1089 39.0318C13.6963 39.2808 13.3039 39.4106 12.9494 39.4322C12.9151 39.434 12.8808 39.4349 12.8464 39.4349" fill="url(#paint4_linear_439_3553)"/>
<path d="M11.7637 38.9567C11.4357 38.5872 11.2419 38.014 11.2419 37.2706V37.0957C11.2419 37.8386 11.4357 38.4123 11.7637 38.7818L11.8474 38.8671L11.7637 38.9567Z" fill="url(#paint5_linear_439_3553)"/>
<path d="M30.5795 29.0671L30.4746 28.9554L36.0955 25.5557C36.8094 25.1241 37.2102 24.5671 37.2771 23.9999C37.2771 24.2081 37.2335 24.4162 37.1468 24.6188C36.9719 25.027 36.6215 25.4128 36.0956 25.731L30.5795 29.0671" fill="url(#paint6_linear_439_3553)"/>
<path d="M37.2713 24.0027C37.2043 23.4341 36.8035 22.8777 36.0897 22.4459L30.4683 19.0466L30.5731 18.935H30.5736L36.0897 22.2711C36.8767 22.7474 37.2708 23.3749 37.2713 24.0027Z" fill="url(#paint7_linear_439_3553)"/>
<path d="M11.2419 10.9043V10.7209C11.2419 10.6548 11.2436 10.5902 11.2468 10.5274V10.5245C11.2468 10.5237 11.2468 10.5227 11.2471 10.5218V10.5147C11.2811 9.87482 11.4678 9.3757 11.7637 9.04241L11.8461 9.13048C11.4678 9.49386 11.2419 10.0999 11.2419 10.9043Z" fill="url(#paint8_linear_439_3553)"/>
<path d="M30.4725 19.0409L14.109 9.14416C13.6553 8.87047 13.226 8.74066 12.8438 8.74066C12.454 8.74066 12.114 8.87564 11.8485 9.13019L11.7661 9.04207C11.7919 9.01307 11.8186 8.9851 11.8463 8.95821C11.8472 8.95724 11.8485 8.95627 11.8494 8.95535C12.1128 8.70274 12.4492 8.56775 12.8354 8.56533H12.8438C13.226 8.56533 13.6553 8.69519 14.109 8.969L30.5778 18.9289L30.5773 18.9293L30.4725 19.0409Z" fill="url(#paint9_linear_439_3553)"/>
<defs>
<linearGradient id="paint0_linear_439_3553" x1="20.1683" y1="10.4524" x2="7.39878" y2="22.4878" gradientUnits="userSpaceOnUse">
<stop stop-color="#00A0FF"/>
<stop offset="0.00657" stop-color="#00A1FF"/>
<stop offset="0.2601" stop-color="#00BEFF"/>
<stop offset="0.5122" stop-color="#00D2FF"/>
<stop offset="0.7604" stop-color="#00DFFF"/>
<stop offset="1" stop-color="#00E3FF"/>
</linearGradient>
<linearGradient id="paint1_linear_439_3553" x1="38.1441" y1="23.9181" x2="10.8651" y2="23.9181" gradientUnits="userSpaceOnUse">
<stop stop-color="#FFE000"/>
<stop offset="0.4087" stop-color="#FFBD00"/>
<stop offset="0.7754" stop-color="#FFA500"/>
<stop offset="1" stop-color="#FF9C00"/>
</linearGradient>
<linearGradient id="paint2_linear_439_3553" x1="28.0005" y1="28.7139" x2="6.37125" y2="48.951" gradientUnits="userSpaceOnUse">
<stop stop-color="#FF3A44"/>
<stop offset="1" stop-color="#C31162"/>
</linearGradient>
<linearGradient id="paint3_linear_439_3553" x1="8.24969" y1="6.93134" x2="17.8902" y2="15.9653" gradientUnits="userSpaceOnUse">
<stop stop-color="#32A071"/>
<stop offset="0.0685" stop-color="#2DA771"/>
<stop offset="0.4762" stop-color="#15CF74"/>
<stop offset="0.8009" stop-color="#06E775"/>
<stop offset="1" stop-color="#00F076"/>
</linearGradient>
<linearGradient id="paint4_linear_439_3553" x1="27.9906" y1="32.1545" x2="10.6611" y2="48.488" gradientUnits="userSpaceOnUse">
<stop stop-color="#CC2E36"/>
<stop offset="1" stop-color="#9C0E4E"/>
</linearGradient>
<linearGradient id="paint5_linear_439_3553" x1="13.1027" y1="10.4517" x2="1.85293" y2="21.0549" gradientUnits="userSpaceOnUse">
<stop stop-color="#008DE0"/>
<stop offset="0.00657" stop-color="#008DE0"/>
<stop offset="0.2601" stop-color="#00A7E0"/>
<stop offset="0.5122" stop-color="#00B8E0"/>
<stop offset="0.7604" stop-color="#00C4E0"/>
<stop offset="1" stop-color="#00C7E0"/>
</linearGradient>
<linearGradient id="paint6_linear_439_3553" x1="38.1469" y1="23.9988" x2="10.868" y2="23.9988" gradientUnits="userSpaceOnUse">
<stop stop-color="#E0C500"/>
<stop offset="0.4087" stop-color="#E0A600"/>
<stop offset="0.7754" stop-color="#E09100"/>
<stop offset="1" stop-color="#E08900"/>
</linearGradient>
<linearGradient id="paint7_linear_439_3553" x1="38.141" y1="24.0039" x2="10.8622" y2="24.0039" gradientUnits="userSpaceOnUse">
<stop stop-color="#FFE840"/>
<stop offset="0.4087" stop-color="#FFCE40"/>
<stop offset="0.7754" stop-color="#FFBC40"/>
<stop offset="1" stop-color="#FFB540"/>
</linearGradient>
<linearGradient id="paint8_linear_439_3553" x1="13.0912" y1="10.4689" x2="2.28474" y2="20.213" gradientUnits="userSpaceOnUse">
<stop stop-color="#40B8FF"/>
<stop offset="0.00657" stop-color="#40B9FF"/>
<stop offset="0.2601" stop-color="#40CEFF"/>
<stop offset="0.5122" stop-color="#40DDFF"/>
<stop offset="0.7604" stop-color="#40E7FF"/>
<stop offset="1" stop-color="#40EAFF"/>
</linearGradient>
<linearGradient id="paint9_linear_439_3553" x1="8.2282" y1="10.0702" x2="15.9666" y2="17.3639" gradientUnits="userSpaceOnUse">
<stop stop-color="#65B895"/>
<stop offset="0.0685" stop-color="#62BD95"/>
<stop offset="0.4762" stop-color="#50DB97"/>
<stop offset="0.8009" stop-color="#44ED98"/>
<stop offset="1" stop-color="#40F498"/>
</linearGradient>
</defs>
</svg>
