<svg width="73" height="73" viewBox="0 0 73 73" fill="none" xmlns="http://www.w3.org/2000/svg">
<circle cx="36.5" cy="36.5" r="36.5" fill="#34912B" fill-opacity="0.1"/>
<path d="M50.92 36.61L47.92 29.61C47.8434 29.4293 47.7154 29.275 47.5518 29.1666C47.3882 29.0581 47.1963 29.0002 47 29H44V27C44 26.7348 43.8946 26.4804 43.7071 26.2929C43.5196 26.1054 43.2652 26 43 26H24C23.7348 26 23.4804 26.1054 23.2929 26.2929C23.1054 26.4804 23 26.7348 23 27V44C23 44.2652 23.1054 44.5196 23.2929 44.7071C23.4804 44.8946 23.7348 45 24 45H26.14C26.3703 45.8474 26.873 46.5954 27.5706 47.1287C28.2682 47.6621 29.1219 47.951 30 47.951C30.8781 47.951 31.7318 47.6621 32.4294 47.1287C33.127 46.5954 33.6297 45.8474 33.86 45H40.14C40.3703 45.8474 40.873 46.5954 41.5706 47.1287C42.2682 47.6621 43.1219 47.951 44 47.951C44.8781 47.951 45.7318 47.6621 46.4294 47.1287C47.127 46.5954 47.6297 45.8474 47.86 45H50C50.2652 45 50.5196 44.8946 50.7071 44.7071C50.8946 44.5196 51 44.2652 51 44V37C50.9997 36.866 50.9725 36.7333 50.92 36.61ZM44 31H46.34L48.48 36H44V31ZM30 46C29.6044 46 29.2178 45.8827 28.8889 45.6629C28.56 45.4432 28.3036 45.1308 28.1522 44.7654C28.0009 44.3999 27.9613 43.9978 28.0384 43.6098C28.1156 43.2219 28.3061 42.8655 28.5858 42.5858C28.8655 42.3061 29.2219 42.1156 29.6098 42.0384C29.9978 41.9613 30.3999 42.0009 30.7654 42.1522C31.1308 42.3036 31.4432 42.56 31.6629 42.8889C31.8827 43.2178 32 43.6044 32 44C32 44.5304 31.7893 45.0391 31.4142 45.4142C31.0391 45.7893 30.5304 46 30 46ZM40.14 43H33.86C33.6297 42.1526 33.127 41.4046 32.4294 40.8713C31.7318 40.3379 30.8781 40.049 30 40.049C29.1219 40.049 28.2682 40.3379 27.5706 40.8713C26.873 41.4046 26.3703 42.1526 26.14 43H25V28H42V40.56C41.5446 40.8243 41.1459 41.1759 40.8268 41.5946C40.5076 42.0133 40.2742 42.4909 40.14 43ZM44 46C43.6044 46 43.2178 45.8827 42.8889 45.6629C42.56 45.4432 42.3036 45.1308 42.1522 44.7654C42.0009 44.3999 41.9613 43.9978 42.0384 43.6098C42.1156 43.2219 42.3061 42.8655 42.5858 42.5858C42.8655 42.3061 43.2219 42.1156 43.6098 42.0384C43.9978 41.9613 44.3999 42.0009 44.7654 42.1522C45.1308 42.3036 45.4432 42.56 45.6629 42.8889C45.8827 43.2178 46 43.6044 46 44C46 44.5304 45.7893 45.0391 45.4142 45.4142C45.0391 45.7893 44.5304 46 44 46ZM49 43H47.86C47.6389 42.1435 47.1401 41.3845 46.4416 40.8417C45.7432 40.2989 44.8846 40.0029 44 40V38H49V43Z" fill="#34912B"/>
</svg>
