<svg width="73" height="73" viewBox="0 0 73 73" fill="none" xmlns="http://www.w3.org/2000/svg">
<path d="M37 24C30.3832 24 25 29.3832 25 36C25 42.6168 30.3832 48 37 48C43.6168 48 49 42.6168 49 36C49 29.3832 43.6168 24 37 24ZM37 45.6C31.7068 45.6 27.4 41.2932 27.4 36C27.4 30.7068 31.7068 26.4 37 26.4C42.2932 26.4 46.6 30.7068 46.6 36C46.6 41.2932 42.2932 45.6 37 45.6Z" fill="#0D4EF4"/>
<path d="M38.2 30H35.8V37.2H43V34.8H38.2V30Z" fill="#0D4EF4"/>
<circle cx="36.5" cy="36.5" r="36.5" fill="#4FA0F8" fill-opacity="0.1"/>
</svg>
