<svg width="73" height="73" viewBox="0 0 73 73" fill="none" xmlns="http://www.w3.org/2000/svg">
<circle cx="36.5" cy="36.5" r="36.5" fill="#E7AC3E" fill-opacity="0.15"/>
<path fill-rule="evenodd" clip-rule="evenodd" d="M41.5031 19.3129C44.2403 18.6607 47.3537 20.0329 48.1357 24.6937L49.3818 32.1212L38.3761 34.7438L37.13 27.3163C36.348 22.6553 38.7662 19.9651 41.5035 19.3129L41.5031 19.3129Z" fill="#E7AC3E"/>
<path fill-rule="evenodd" clip-rule="evenodd" d="M31.5981 34.7868C33.3705 34.3644 35.1031 34.5337 36.6133 35.1617L36.9017 36.8812L25.255 47.5619C24.9519 46.8975 24.7285 46.1786 24.5997 45.4108C23.7992 40.6395 26.9202 35.902 31.5975 34.7874L31.5981 34.7868Z" fill="#E7AC3E"/>
<path fill-rule="evenodd" clip-rule="evenodd" d="M38.6568 36.2842L49.6625 33.6616L50.9086 41.0891C51.5437 44.8745 50.0414 47.3247 48.0109 48.4956C45.9819 49.6656 43.3921 49.5162 41.6394 47.6162C40.5929 46.4335 40.1253 44.9704 39.9026 43.7115L38.6568 36.2842Z" fill="#E7AC3E"/>
<path fill-rule="evenodd" clip-rule="evenodd" d="M37.2357 38.777L37.4474 40.0385L26.787 49.8075C26.5419 49.5545 26.3248 49.2708 26.113 48.9842L37.2357 38.777Z" fill="#E7AC3E"/>
<path fill-rule="evenodd" clip-rule="evenodd" d="M37.7791 41.9446L38.1383 44.0853C38.4277 45.81 39.03 47.2094 39.8336 48.284C38.5747 50.0598 36.7122 51.4042 34.5005 51.9313C32.1548 52.4902 29.8658 52.0292 28.0752 50.8264L37.7791 41.9446Z" fill="#E7AC3E"/>
</svg>
