<svg width="354" height="314" viewBox="0 0 354 314" fill="none" xmlns="http://www.w3.org/2000/svg">
<path d="M143.298 102.369C141.546 100.69 139.754 91.3223 137.517 90.3713C139.189 94.064 137.975 95.0417 137.966 99.0944C137.987 101.396 137.719 103.69 137.166 105.924H99.2781V76.3735C99.278 73.7182 99.8012 71.089 100.818 68.6359C101.835 66.1828 103.325 63.9538 105.203 62.0763C107.082 60.1987 109.312 58.7094 111.767 57.6933C114.222 56.6773 116.853 56.1543 119.509 56.1544C120.523 56.1742 121.531 56.3216 122.508 56.5932C125.765 57.4719 128.733 59.191 131.115 61.578C133.497 63.9651 135.209 66.9361 136.079 70.1932C138.967 80.7441 143.561 98.307 143.298 102.369Z" fill="#2F2E41"/>
<path d="M101.501 138.723L101.52 115.689L87.972 116.899L92.7532 131.426L90.5155 167.94C89.4302 168.184 88.4393 168.738 87.6634 169.534C86.8876 170.331 86.3604 171.336 86.1462 172.426C85.9319 173.517 86.0399 174.647 86.4569 175.677C86.8738 176.708 87.5819 177.595 88.4946 178.23C89.4073 178.865 90.4852 179.222 91.597 179.255C92.7088 179.289 93.8063 178.999 94.7558 178.42C95.7054 177.841 96.4658 176.998 96.9444 175.995C97.4231 174.991 97.5992 173.87 97.4514 172.769L101.501 138.723Z" fill="#FFB6B6"/>
<path d="M128.163 303.318L133.636 303.318L136.24 282.219H128.161L128.163 303.318Z" fill="#FFB6B6"/>
<path d="M126.309 300.62L134.961 300.104V303.808L143.187 309.486C143.593 309.766 143.899 310.169 144.06 310.636C144.221 311.102 144.229 311.608 144.082 312.079C143.935 312.55 143.641 312.962 143.244 313.254C142.846 313.547 142.365 313.705 141.871 313.705H131.571L129.795 310.04L129.102 313.705H125.218L126.309 300.62Z" fill="#2F2E41"/>
<path d="M96.5151 303.318L101.989 303.318L104.592 282.219H96.5144L96.5151 303.318Z" fill="#FFB6B6"/>
<path d="M94.6618 300.62L103.314 300.104V303.808L111.54 309.486C111.946 309.766 112.252 310.169 112.413 310.636C112.574 311.102 112.582 311.608 112.435 312.079C112.288 312.55 111.994 312.962 111.596 313.254C111.199 313.547 110.718 313.705 110.224 313.705H99.9233L98.1478 310.04L97.4546 313.705H93.5708L94.6618 300.62Z" fill="#2F2E41"/>
<path d="M123.289 90.8157L111.95 91.0379L103.947 99.481L97.5302 100.422C94.6276 100.847 91.9591 102.255 89.9707 104.411C87.9823 106.566 86.7944 109.339 86.6057 112.265L87.7173 118.367H94.3869L98.2453 141.008C96.745 144.828 96.643 147.844 99.7227 149.029L109.282 167.026L137.517 154.361C138.949 151.901 139.408 149.43 137.944 147.027L139.963 112.368H146.75C146.75 105.885 144.556 100.421 138.11 99.6993C135.55 99.4224 132.978 99.2754 130.403 99.2588L123.289 90.8157Z" fill="#E6E6E6"/>
<path d="M137.517 154.361C137.517 154.361 109.95 159.249 99.7228 149.029C99.7228 149.029 98.6845 150.79 97.12 153.712C96.6701 154.552 95.8011 155.121 95.2764 156.139C94.7994 157.064 93.5727 158.201 93.0531 159.25C92.6352 160.094 93.3057 161.196 92.8708 162.108C87.6335 173.087 81.5145 188.573 82.8264 198.799C83.6723 205.393 85.4196 220.738 87.2598 237.219C87.4035 238.507 86.239 240.161 86.3835 241.459C86.5198 242.683 87.9651 243.55 88.1014 244.777C88.1919 245.591 87.1826 246.422 87.2728 247.236C87.3718 248.128 88.5704 249.003 88.6689 249.892C91.1897 272.649 93.4978 293.895 93.4978 293.895H106.392L108.825 245.371L106.837 227.683L111.506 191.911L117.953 225.906L118.783 245.038L125.596 294.784H137.517V246.627L138.407 244.125L137.517 240.916L138.407 237.459L137.517 233.694V154.361Z" fill="#2F2E41"/>
<path d="M126.769 84.2444C125.012 86.5761 122.514 88.2405 119.684 88.9635C116.855 89.6864 113.864 89.4249 111.203 88.2219C108.542 87.0188 106.371 84.9461 105.046 82.345C103.722 79.7439 103.323 76.7695 103.916 73.9117C104.509 71.0539 106.058 68.4831 108.308 66.6226C110.558 64.7622 113.375 63.723 116.295 63.6763C119.215 63.6296 122.064 64.5781 124.372 66.3657C126.681 68.1532 128.311 70.6732 128.996 73.5106C129.032 73.6645 129.064 73.8176 129.094 73.9765C129.455 75.755 129.435 77.5898 129.034 79.3598C128.633 81.1298 127.861 82.7947 126.769 84.2444Z" fill="#FFB6B6"/>
<path d="M124.089 76.9155C123.816 75.548 123.127 74.2983 122.115 73.3383C122.215 74.6488 122.033 75.9655 121.581 77.1999C118.201 77.4991 114.806 76.8269 111.795 75.2625C109.527 73.7249 106.641 73.8582 103.28 75.2625C103.28 73.6284 103.601 72.0104 104.227 70.5007C104.853 68.991 105.77 67.6193 106.926 66.4638C108.082 65.3084 109.455 64.3919 110.965 63.7667C112.476 63.1414 114.095 62.8197 115.73 62.8199H117.953C121.255 62.8205 124.421 64.1316 126.756 66.4649C129.091 68.7982 130.402 71.9627 130.403 75.2625C128.351 75.998 126.238 76.5511 124.089 76.9155Z" fill="#2F2E41"/>
<path d="M120.661 190H58.3399C57.4549 189.997 56.6067 189.607 55.9809 188.915C55.3551 188.222 55.0024 187.284 55 186.304V152.696C55.0023 151.717 55.3548 150.778 55.9806 150.086C56.6063 149.393 57.4544 149.003 58.3394 149H120.66C121.545 149.003 122.393 149.393 123.019 150.085C123.645 150.778 123.998 151.716 124 152.696V186.304C123.998 187.283 123.645 188.222 123.019 188.914C122.394 189.607 121.546 189.997 120.661 190Z" fill="white"/>
<path d="M120.938 189.523H63.786C62.9744 189.521 62.1966 189.198 61.6227 188.625C61.0487 188.051 60.7253 187.274 60.7231 186.463V158.632C60.7252 157.821 61.0485 157.044 61.6224 156.47C62.1963 155.896 62.974 155.573 63.7856 155.571H120.937C121.749 155.573 122.527 155.896 123.1 156.47C123.674 157.043 123.998 157.821 124 158.632V186.462C123.998 187.274 123.675 188.051 123.101 188.624C122.527 189.198 121.749 189.521 120.938 189.523ZM63.786 156.425C63.2007 156.427 62.6399 156.66 62.2261 157.073C61.8123 157.487 61.5791 158.048 61.5775 158.632V186.462C61.5792 187.047 61.8125 187.608 62.2264 188.021C62.6403 188.435 63.2011 188.668 63.7864 188.67H120.937C121.522 188.668 122.083 188.435 122.497 188.021C122.911 187.608 123.144 187.047 123.146 186.462V158.632C123.144 158.047 122.911 157.487 122.497 157.073C122.083 156.66 121.522 156.427 120.937 156.425L63.786 156.425Z" fill="#3F3D56"/>
<path d="M95.4249 185.41C84.1533 185.41 72.4002 185.303 68.015 185.233C67.438 185.221 66.8886 184.984 66.484 184.573C66.0793 184.162 65.8516 183.609 65.8494 183.032V159.995C65.8496 159.788 65.9316 159.59 66.0776 159.444C66.2235 159.298 66.4215 159.215 66.6281 159.214H118.093C118.3 159.215 118.498 159.297 118.644 159.442C118.791 159.588 118.873 159.786 118.874 159.993V175.623C118.864 178.175 117.854 180.621 116.061 182.437C114.267 184.253 111.833 185.294 109.281 185.337C105.194 185.39 100.354 185.41 95.4249 185.41Z" fill="#E7AC3E"/>
<path d="M115.038 174.187H68.5356C68.1462 174.186 67.7666 174.065 67.4483 173.841C67.1301 173.617 66.8886 173.3 66.7568 172.934L61.4933 158.177C61.3919 157.892 61.3603 157.587 61.4011 157.288C61.442 156.988 61.5541 156.703 61.7282 156.456C61.9022 156.209 62.133 156.007 62.4012 155.868C62.6693 155.729 62.9671 155.655 63.2694 155.655L121.397 155.574C121.673 155.574 121.946 155.634 122.197 155.751C122.447 155.867 122.669 156.037 122.847 156.249C123.024 156.46 123.153 156.708 123.225 156.975C123.296 157.242 123.308 157.521 123.259 157.793L123.304 157.812L123.137 158.201L123.136 158.205L116.773 173.043C116.628 173.383 116.386 173.672 116.078 173.876C115.769 174.079 115.408 174.187 115.038 174.187ZM121.4 156.428L63.2711 156.509C63.1055 156.509 62.9423 156.549 62.7954 156.625C62.6485 156.702 62.5221 156.812 62.4267 156.948C62.3314 157.083 62.2699 157.239 62.2475 157.403C62.2251 157.567 62.2425 157.734 62.298 157.89L67.5613 172.647C67.6336 172.847 67.766 173.021 67.9404 173.144C68.1148 173.266 68.3228 173.333 68.5362 173.333H115.038C115.241 173.333 115.438 173.274 115.607 173.163C115.776 173.051 115.908 172.893 115.987 172.707L122.351 157.869L122.663 158.003L122.351 157.869C122.418 157.711 122.445 157.54 122.43 157.37C122.415 157.199 122.358 157.035 122.263 156.892C122.169 156.75 122.041 156.632 121.89 156.551C121.739 156.47 121.571 156.428 121.4 156.428Z" fill="#3F3D56"/>
<path d="M92.2749 177.399C94.2859 177.399 95.9162 175.77 95.9162 173.76C95.9162 171.75 94.2859 170.121 92.2749 170.121C90.2638 170.121 88.6335 171.75 88.6335 173.76C88.6335 175.77 90.2638 177.399 92.2749 177.399Z" fill="white"/>
<path d="M207.02 76.7596V109.615C207.02 110.298 206.751 110.953 206.271 111.438C205.79 111.923 205.138 112.199 204.455 112.206C204.446 112.207 204.436 112.208 204.427 112.207H200.6C197.539 112.207 194.603 110.992 192.438 108.828C190.273 106.665 189.057 103.731 189.057 100.671V76.7596C189.057 76.0722 189.33 75.4129 189.817 74.9268C190.303 74.4407 190.963 74.1676 191.65 74.1676H193.201C192.483 76.2616 202.231 77.1433 202.766 74.1676H204.427C205.115 74.1676 205.774 74.4407 206.261 74.9268C206.747 75.4129 207.02 76.0722 207.02 76.7596Z" fill="#E7AC3E"/>
<path d="M195.666 71.7108C195.666 71.6207 195.701 71.5344 195.765 71.4707C195.829 71.407 195.915 71.3712 196.005 71.3711H198.317C198.407 71.3714 198.493 71.4073 198.556 71.4709C198.62 71.5346 198.656 71.6209 198.656 71.7108C198.656 71.8007 198.62 71.887 198.556 71.9506C198.493 72.0143 198.407 72.0502 198.317 72.0505H196.005C195.915 72.0504 195.829 72.0146 195.765 71.9509C195.701 71.8872 195.666 71.8008 195.666 71.7108Z" fill="#3F3D56"/>
<path d="M205.221 116.375H190.604C189.47 116.374 188.383 115.923 187.581 115.121C186.779 114.32 186.328 113.234 186.327 112.1V89.1328C186.247 89.0752 186.181 88.9993 186.136 88.9114C186.091 88.8235 186.068 88.7261 186.068 88.6274V86.3175C186.068 86.2188 186.091 86.1214 186.136 86.0336C186.181 85.9457 186.247 85.8698 186.327 85.8123V85.1923C186.247 85.1347 186.181 85.0589 186.136 84.971C186.091 84.8831 186.068 84.7858 186.068 84.6871V82.3771C186.068 82.2783 186.091 82.181 186.136 82.0931C186.181 82.0053 186.247 81.9294 186.327 81.8718V80.7514C186.228 80.6982 186.145 80.6191 186.088 80.5225C186.03 80.4259 186 80.3155 186 80.2031V77.8932C186 77.7808 186.03 77.6704 186.088 77.5738C186.145 77.4772 186.228 77.3981 186.327 77.3448V74.2746C186.328 73.1413 186.779 72.0548 187.581 71.2534C188.383 70.452 189.47 70.0013 190.604 70H205.221C206.355 70.0013 207.442 70.452 208.244 71.2534C209.046 72.0548 209.497 73.1413 209.498 74.2746V80.9671C209.575 81.0152 209.639 81.0822 209.683 81.1616C209.727 81.241 209.75 81.3303 209.75 81.4211V85.8256C209.75 85.9164 209.727 86.0057 209.683 86.0852C209.639 86.1646 209.575 86.2316 209.498 86.2798V112.1C209.497 113.234 209.046 114.32 208.244 115.121C207.442 115.923 206.355 116.374 205.221 116.375ZM190.604 70.5682C189.621 70.5693 188.678 70.9602 187.983 71.655C187.288 72.3499 186.897 73.292 186.896 74.2746V77.8282L186.622 77.8387C186.608 77.8392 186.594 77.8452 186.584 77.8553C186.575 77.8654 186.569 77.879 186.569 77.8932V80.2031C186.569 80.2173 186.575 80.2309 186.585 80.241C186.594 80.2511 186.608 80.2571 186.622 80.2576L186.896 80.268V82.2708L186.679 82.324C186.667 82.3269 186.657 82.3337 186.649 82.3433C186.641 82.3529 186.637 82.3647 186.637 82.377V84.6871C186.637 84.6994 186.641 84.7113 186.649 84.7208C186.657 84.7304 186.667 84.7372 186.679 84.7401L186.896 84.7933V86.2112L186.679 86.2645C186.667 86.2674 186.657 86.2742 186.649 86.2837C186.641 86.2933 186.637 86.3052 186.637 86.3175V88.6274C186.637 88.6397 186.641 88.6516 186.649 88.6612C186.657 88.6708 186.667 88.6776 186.679 88.6805L186.896 88.7338V112.1C186.897 113.083 187.288 114.025 187.983 114.72C188.678 115.415 189.621 115.806 190.604 115.807H205.221C206.204 115.806 207.147 115.415 207.842 114.72C208.537 114.025 208.928 113.083 208.929 112.1V85.7933H209.181V81.4536H208.929V74.2746C208.928 73.292 208.537 72.3499 207.842 71.655C207.147 70.9602 206.204 70.5693 205.221 70.5682L190.604 70.5682Z" fill="#3F3D56"/>
<path d="M199.608 72.0505C199.796 72.0505 199.948 71.8984 199.948 71.7108C199.948 71.5232 199.796 71.3711 199.608 71.3711C199.42 71.3711 199.268 71.5232 199.268 71.7108C199.268 71.8984 199.42 72.0505 199.608 72.0505Z" fill="#3F3D56"/>
<path d="M198.132 108.421C199.47 108.421 200.555 107.337 200.555 105.999C200.555 104.662 199.47 103.578 198.132 103.578C196.794 103.578 195.709 104.662 195.709 105.999C195.709 107.337 196.794 108.421 198.132 108.421Z" fill="white"/>
<path d="M283.025 212.695L273.728 203.522C273.275 203.072 272.738 202.715 272.148 202.473C271.557 202.231 270.924 202.107 270.286 202.11H270.253C269.61 202.112 268.973 202.241 268.381 202.491C267.788 202.74 267.25 203.104 266.799 203.563C264.72 205.665 263.538 208.491 263.501 211.447C263.463 214.402 264.574 217.257 266.599 219.411C266.697 219.517 266.799 219.619 266.901 219.721C267.467 220.283 268.091 220.782 268.763 221.211C270.601 222.398 272.744 223.026 274.932 223.018H275.002C276.504 223.013 277.99 222.711 279.374 222.128C280.758 221.545 282.013 220.694 283.066 219.623C283.978 218.698 284.486 217.45 284.478 216.151C284.471 214.852 283.948 213.609 283.025 212.695ZM282.486 219.048C280.76 220.786 278.487 221.876 276.05 222.135C273.614 222.393 271.163 221.805 269.11 220.468C268.523 220.08 267.974 219.636 267.473 219.142C265.47 217.165 264.334 214.473 264.317 211.659C264.299 208.846 265.401 206.14 267.379 204.138C267.755 203.755 268.203 203.451 268.698 203.243C269.193 203.035 269.724 202.927 270.261 202.926H270.286C270.817 202.924 271.344 203.027 271.836 203.229C272.328 203.43 272.775 203.727 273.152 204.101L282.449 213.278C283.219 214.039 283.655 215.074 283.662 216.156C283.669 217.237 283.246 218.278 282.486 219.048Z" fill="#3F3D56"/>
<path d="M252.521 182.589L243.224 173.412C242.309 172.504 241.071 171.997 239.782 172H239.753C239.109 172.003 238.472 172.133 237.878 172.383C237.285 172.633 236.747 172.998 236.295 173.457C234.577 175.201 233.462 177.45 233.116 179.873C232.769 182.296 233.208 184.767 234.368 186.922L234.372 186.926C234.851 187.808 235.445 188.622 236.14 189.346C236.218 189.436 236.307 189.526 236.397 189.615C238.532 191.733 241.42 192.919 244.428 192.912H244.502C246.004 192.906 247.49 192.603 248.874 192.019C250.258 191.436 251.513 190.584 252.566 189.513C253.018 189.056 253.375 188.514 253.618 187.918C253.86 187.322 253.983 186.685 253.978 186.042C253.974 185.399 253.843 184.763 253.593 184.17C253.343 183.578 252.979 183.041 252.521 182.589V182.589ZM251.982 188.942C251.005 189.936 249.84 190.726 248.555 191.267C247.271 191.809 245.892 192.091 244.498 192.096H244.428C242.335 192.096 240.288 191.476 238.546 190.316C236.804 189.156 235.444 187.507 234.637 185.576C233.83 183.645 233.612 181.519 234.011 179.465C234.41 177.411 235.408 175.521 236.879 174.032C237.64 173.263 238.676 172.827 239.758 172.82C240.84 172.813 241.881 173.236 242.652 173.995L251.949 183.168C252.718 183.93 253.154 184.966 253.16 186.049C253.166 187.131 252.742 188.172 251.982 188.942L251.982 188.942Z" fill="#3F3D56"/>
<path d="M283.619 215.579L273.369 205.462C272.697 204.8 271.79 204.431 270.846 204.437C269.903 204.443 269 204.823 268.336 205.493C267.506 206.331 266.849 207.325 266.403 208.417C265.957 209.51 265.731 210.679 265.737 211.859C265.744 213.039 265.983 214.206 266.442 215.293C266.9 216.38 267.568 217.366 268.408 218.195C269.248 219.024 270.243 219.68 271.336 220.124C272.43 220.569 273.6 220.793 274.781 220.785C275.961 220.777 277.128 220.537 278.216 220.078C279.303 219.618 280.289 218.95 281.118 218.109L283.619 215.579Z" fill="#E7AC3E"/>
<path d="M253.117 185.471L242.867 175.354C242.195 174.692 241.288 174.324 240.344 174.33C239.401 174.336 238.498 174.715 237.834 175.385C237.004 176.224 236.347 177.218 235.901 178.31C235.455 179.402 235.229 180.572 235.236 181.751C235.242 182.931 235.482 184.098 235.94 185.185C236.398 186.272 237.066 187.259 237.906 188.088C238.746 188.917 239.741 189.572 240.835 190.017C241.928 190.461 243.098 190.686 244.279 190.678C245.459 190.67 246.627 190.429 247.714 189.97C248.801 189.511 249.787 188.842 250.616 188.002L253.117 185.471Z" fill="#E7AC3E"/>
<path d="M272.356 221.88L272.111 222.525C270.96 222.088 269.844 221.65 268.763 221.211C249.622 213.405 240.484 204.269 234.372 186.926L234.368 186.922C234.078 186.106 233.797 185.271 233.523 184.417L234.168 184.209C234.384 185.03 234.699 185.822 235.107 186.567C235.442 187.518 235.786 188.444 236.14 189.346C241.885 203.983 250.357 212.348 266.599 219.411C267.416 219.766 268.253 220.119 269.11 220.468C270.106 221.116 271.203 221.594 272.356 221.88Z" fill="#34912B"/>
<path d="M243.054 192.17L242.48 192.75L263.686 213.683L264.26 213.102L243.054 192.17Z" fill="#3F3D56"/>
<path d="M146.41 133.39L146.429 110.357L132.881 111.567L137.662 126.094L120.307 152.387C119.221 152.631 118.23 153.184 117.455 153.981C116.679 154.777 116.152 155.782 115.937 156.873C115.723 157.964 115.831 159.093 116.248 160.124C116.665 161.155 117.373 162.042 118.286 162.677C119.199 163.312 120.276 163.668 121.388 163.702C122.5 163.736 123.598 163.445 124.547 162.866C125.497 162.287 126.257 161.445 126.736 160.441C127.214 159.438 127.39 158.317 127.243 157.215L146.41 133.39Z" fill="#FFB6B6"/>
</svg>
