<svg width="14" height="14" viewBox="0 0 14 14" fill="none" xmlns="http://www.w3.org/2000/svg">
<path d="M11.9782 2.04324C10.6812 0.718942 8.88828 0 7.0572 0C3.16625 0 0.0381713 3.14053 0.0762879 6.96214C0.0762879 8.17296 0.419611 9.34597 0.991852 10.4054L0 14L3.70026 13.054C4.73023 13.6217 5.8746 13.8865 7.01909 13.8865C10.8719 13.8865 14 10.7459 14 6.92438C14 5.07029 13.2751 3.32973 11.9782 2.04324ZM7.0572 12.7136C6.02723 12.7136 4.99727 12.4487 4.11987 11.919L3.89101 11.8055L1.6785 12.373L2.25068 10.2163L2.09811 9.98924C0.419611 7.30279 1.22072 3.74594 3.9673 2.08105C6.71388 0.41621 10.2616 1.21082 11.9401 3.93514C13.6185 6.65946 12.8174 10.1784 10.0709 11.8433C9.19343 12.4108 8.12534 12.7136 7.0572 12.7136ZM10.4141 8.51361L9.99453 8.32441C9.99453 8.32441 9.38423 8.05954 9.00273 7.87034C8.96456 7.87034 8.92645 7.83247 8.88828 7.83247C8.77382 7.83247 8.69753 7.87034 8.62124 7.9082C8.62124 7.9082 8.58312 7.946 8.04905 8.55142C8.01088 8.62708 7.9346 8.66495 7.85831 8.66495H7.82014C7.78202 8.66495 7.70573 8.62708 7.66756 8.58928L7.47681 8.51361C7.0572 8.32441 6.67576 8.09734 6.37056 7.79467C6.29427 7.719 6.17981 7.64333 6.10352 7.56766C5.83649 7.30279 5.56945 7.00005 5.37876 6.65951L5.34059 6.58384C5.30247 6.54598 5.30247 6.50817 5.2643 6.43251C5.2643 6.35684 5.2643 6.28117 5.30247 6.2433C5.30247 6.2433 5.45505 6.0541 5.56945 5.94063C5.64579 5.8649 5.68391 5.75143 5.7602 5.67576C5.83649 5.56222 5.87466 5.41089 5.83649 5.29735C5.79837 5.10815 5.34059 4.08653 5.22618 3.85953C5.14984 3.74599 5.07361 3.70819 4.95915 3.67032H4.53954C4.4632 3.67032 4.38696 3.70819 4.31062 3.70819L4.27245 3.74599C4.19616 3.78386 4.11987 3.85952 4.04359 3.89733C3.9673 3.97306 3.92913 4.04867 3.85284 4.1244C3.5858 4.46494 3.43323 4.88114 3.43323 5.29735C3.43323 5.60003 3.50952 5.90276 3.62397 6.16764L3.66215 6.28117C4.00547 7.00005 4.4632 7.64333 5.07361 8.21088L5.22618 8.36221C5.34059 8.47575 5.45505 8.55142 5.53134 8.66489C6.33244 9.34603 7.24795 9.8379 8.27792 10.1028C8.39238 10.1406 8.54495 10.1406 8.65941 10.1784H9.04085C9.2316 10.1784 9.46046 10.1028 9.61309 10.0271C9.7275 9.95144 9.80378 9.95144 9.88007 9.87577L9.95642 9.80004C10.0327 9.72437 10.109 9.68657 10.1853 9.6109C10.2616 9.53523 10.3379 9.45956 10.376 9.38383C10.4523 9.2325 10.4904 9.04329 10.5286 8.85415V8.58928C10.5286 8.58928 10.4904 8.55141 10.4141 8.51361Z" fill="white"/>
</svg>
